Coordinates
version=1
nRows=12
nColumns=46
inDegrees=yes

Units are S.I. units (second, meters, Newtons, ...)
Angles are in degrees.

endheader
time	pelvis_tilt	pelvis_list	pelvis_rotation	pelvis_tx	pelvis_ty	pelvis_tz	bb_angle	bb_tx	bb_ty	bb_tz	hip_flexion_r	hip_adduction_r	hip_rotation_r	knee_angle_r	knee_angle_r_beta	ankle_angle_r	subtalar_angle_r	mtp_angle_r	crank_angle_r	hip_flexion_l	hip_adduction_l	hip_rotation_l	knee_angle_l	knee_angle_l_beta	ankle_angle_l	subtalar_angle_l	mtp_angle_l	crank_angle_l	lumbar_extension	lumbar_bending	lumbar_rotation	arm_flex_r	arm_add_r	arm_rot_r	elbow_flex_r	pro_sup_r	wrist_flex_r	wrist_dev_r	arm_flex_l	arm_add_l	arm_rot_l	elbow_flex_l	pro_sup_l	wrist_flex_l	wrist_dev_l
      5.00000000	    -25.00763445	      5.75325637	    -11.44149320	      0.40534783	      1.16494544	     -0.22620518	      0.00000000	      0.50000000	      0.00000000	      0.25000000	     57.18428200	      0.61539149	     11.53457878	     57.63111999	      1.00585280	     10.98476207	     -4.76074819	      0.00000000	      0.00000000	     41.54259752	     -2.78548502	     -2.90462235	     68.51825440	      1.19586914	    -18.20324237	     -7.68663783	      0.00000000	      0.00000000	    -57.66184679	     -5.27872433	      4.46459193	     57.97015914	    -27.11873533	     38.28638093	     77.39699507	     60.35125878	      0.00000000	      0.00000000	     55.54484128	    -19.70856256	     27.48891302	     62.87753570	     52.26151932	      0.00000000	      0.00000000
      5.00500000	    -25.01867548	      6.20266097	    -10.65593861	      0.40540554	      1.16259058	     -0.22580505	      0.00000000	      0.50000000	      0.00000000	      0.25000000	     56.09894039	     -0.26528920	     11.62482701	     55.54394223	      0.96942467	      9.46041352	     -6.01349976	      0.00000000	      0.00000000	     43.01587018	     -2.05363467	     -2.35376204	     71.41514168	      1.24642936	    -16.65344595	     -7.10787484	      0.00000000	      0.00000000	    -57.34922638	     -5.34303621	      4.03746174	     57.37515437	    -27.82726824	     38.02683850	     77.72315286	     60.36942306	      0.00000000	      0.00000000	     55.99472302	    -19.74269032	     28.45710430	     62.58270193	     52.34270155	      0.00000000	      0.00000000
      5.01000000	    -24.89822966	      6.94542595	     -9.93949320	      0.40558158	      1.16050590	     -0.22533678	      0.00000000	      0.50000000	      0.00000000	      0.25000000	     54.88554673	     -1.24401599	     12.20225341	     53.48430109	      0.93347715	      7.89306754	     -6.46063817	      0.00000000	      0.00000000	     44.29879471	     -1.03679502	     -2.15447711	     74.06433730	      1.29266654	    -15.40197109	     -7.21978703	      0.00000000	      0.00000000	    -57.11107500	     -5.93711017	      4.57388897	     55.31741424	    -30.27291261	     36.30808754	     79.71930849	     60.40322664	      0.00000000	      0.00000000	     58.20099892	    -18.63333353	     32.31576853	     60.05052003	     52.47601263	      0.00000000	      0.00000000
      5.01500000	    -24.85670933	      7.60588429	     -8.96718003	      0.40581013	      1.15834671	     -0.22495290	      0.00000000	      0.50000000	      0.00000000	      0.25000000	     53.69722028	     -2.42286296	     12.40540200	     51.49692482	      0.89879089	      6.52148135	     -7.03981991	      0.00000000	      0.00000000	     45.85234225	     -0.11640318	     -1.78151382	     76.86503385	      1.34154792	    -14.18643742	     -6.46190483	      0.00000000	      0.00000000	    -56.81033434	     -6.12436889	      3.70665508	     54.87503443	    -30.82901269	     36.31527305	     79.56020433	     60.38334550	      0.00000000	      0.00000000	     58.32880215	    -18.61066550	     32.73750660	     60.12772199	     52.54319927	      0.00000000	      0.00000000
      5.02000000	    -24.96277621	      8.09939997	     -7.99473381	      0.40592821	      1.15588424	     -0.22439686	      0.00000000	      0.50000000	      0.00000000	      0.25000000	     52.54501508	     -3.39648285	     12.60291430	     49.47662297	      0.86352997	      5.16258505	     -7.76480348	      0.00000000	      0.00000000	     47.56214185	      0.60411353	     -1.33664399	     79.70663353	      1.39114319	    -12.79189944	     -5.60137028	      0.00000000	      0.00000000	    -56.32698523	     -6.26465823	      3.02009603	     54.33972402	    -31.43120215	     36.39268492	     79.48737505	     60.38443746	      0.00000000	      0.00000000	     58.65551520	    -18.69815112	     33.68567088	     59.98620399	     52.63741349	      0.00000000	      0.00000000
      5.02500000	    -24.98885965	      8.67463562	     -6.84620664	      0.40620276	      1.15365122	     -0.22388003	      0.00000000	      0.50000000	      0.00000000	      0.25000000	     51.23844183	     -4.52925474	     12.87029949	     47.49424460	      0.82893094	      3.75924554	     -8.60488841	      0.00000000	      0.00000000	     49.23982589	      1.41357339	     -0.99309538	     82.46307281	      1.43925213	    -11.53537368	     -4.50928860	      0.00000000	      0.00000000	    -55.92660698	     -6.38676080	      2.18212879	     53.77911194	    -32.05392875	     36.47255693	     79.24464738	     60.36336014	      0.00000000	      0.00000000	     59.03483682	    -18.68306503	     34.65266957	     59.74359721	     52.71395070	      0.00000000	      0.00000000
      5.03000000	    -25.02115413	      9.27175550	     -5.67808897	      0.40635451	      1.15158626	     -0.22307808	      0.00000000	      0.50000000	      0.00000000	      0.25000000	     49.88763471	     -5.67917258	     13.16728320	     45.52180175	      0.79450532	      2.49860709	     -9.31542426	      0.00000000	      0.00000000	     50.72734929	      2.51460664	     -0.63924514	     84.85851758	      1.48106053	    -10.43719503	     -4.56861771	      0.00000000	      0.00000000	    -55.49136477	     -6.74896432	      1.81898251	     52.82459409	    -33.34873318	     36.31624737	     79.46614614	     60.33150586	      0.00000000	      0.00000000	     60.89304106	    -18.62055131	     38.84177284	     57.88655387	     52.90745950	      0.00000000	      0.00000000
      5.03500000	    -25.20277781	     10.04174854	     -4.40298730	      0.40693001	      1.14944589	     -0.22257565	      0.00000000	      0.50000000	      0.00000000	      0.25000000	     48.68265737	     -7.06581110	     13.42928093	     43.64098192	      0.76167882	      1.47211689	     -9.52628598	      0.00000000	      0.00000000	     52.32614893	      3.79712795	     -0.42934070	     87.10834032	      1.52032734	     -9.33711899	     -4.69558428	      0.00000000	      0.00000000	    -55.02113223	     -7.37948830	      0.78430423	     51.95132399	    -33.99092964	     36.27483130	     79.03226836	     60.23662602	      0.00000000	      0.00000000	     63.51627227	    -18.65882766	     37.15463668	     58.41016746	     52.72469057	      0.00000000	      0.00000000
      5.04000000	    -25.46163703	     10.46699394	     -2.73646529	      0.40690383	      1.14727984	     -0.22236354	      0.00000000	      0.50000000	      0.00000000	      0.25000000	     47.41366564	     -8.36924614	     13.21092445	     41.79850795	      0.72952159	     -0.19261158	    -11.07112138	      0.00000000	      0.00000000	     54.08996757	      5.09410675	      0.23312123	     89.37235108	      1.55984179	     -8.26218276	     -4.36454885	      0.00000000	      0.00000000	    -54.44362768	     -7.24222416	     -0.24247759	     51.09158377	    -34.32180078	     35.96188092	     78.92093341	     60.16271303	      0.00000000	      0.00000000	     63.36190060	    -17.45858827	     35.84427024	     57.84593583	     52.45044346	      0.00000000	      0.00000000
      5.04500000	    -25.61690449	     11.11899029	     -1.29062523	      0.40692859	      1.14537785	     -0.22178741	      0.00000000	      0.50000000	      0.00000000	      0.25000000	     46.07130243	     -9.67168420	     13.34234078	     40.01040970	      0.69831338	     -1.56420555	    -12.08906540	      0.00000000	      0.00000000	     55.66988260	      6.34776988	      0.42654084	     91.41371816	      1.59547036	     -7.26680238	     -4.40885458	      0.00000000	      0.00000000	    -53.76463280	     -7.37291486	     -1.24889216	     50.46146842	    -34.19811944	     35.94687009	     77.76815332	     59.95328791	      0.00000000	      0.00000000	     63.64337164	    -16.76506800	     40.43312521	     54.84334285	     52.54671792	      0.00000000	      0.00000000
      5.05000000	    -25.86198060	     11.84108040	      0.33595837	      0.40710417	      1.14353547	     -0.22177374	      0.00000000	      0.50000000	      0.00000000	      0.25000000	     44.81136682	    -11.27819552	     13.07863932	     38.36875275	      0.66966107	     -2.69458765	    -12.55924252	      0.00000000	      0.00000000	     57.21807422	      7.98982450	      0.77777539	     93.27261870	      1.62791430	     -6.12274832	     -4.42456874	      0.00000000	      0.00000000	    -53.26806484	     -7.58682229	     -2.63963334	     49.69702904	    -34.43797344	     36.03735737	     77.43999776	     59.89868677	      0.00000000	      0.00000000	     63.76553965	    -16.49092603	     41.02484365	     54.70737638	     52.58411273	      0.00000000	      0.00000000
      5.05500000	    -26.25072376	     12.31594720	      1.96943617	      0.40746193	      1.14152905	     -0.22173290	      0.00000000	      0.50000000	      0.00000000	      0.25000000	     43.57410640	    -12.63009598	     12.64833340	     36.74390273	      0.64130208	     -3.88411029	    -13.26931263	      0.00000000	      0.00000000	     58.96861138	      9.24023697	      0.99740715	     95.12149884	      1.66018334	     -5.15496170	     -4.36475652	      0.00000000	      0.00000000	    -52.58879286	     -7.68056791	     -3.89264471	     48.93628444	    -34.41006308	     36.10833303	     76.82128856	     59.75114651	      0.00000000	      0.00000000	     63.86106531	    -16.27633167	     41.91714766	     54.42860043	     52.61375707	      0.00000000	      0.00000000
